<?xml version="1.0" encoding="UTF-8" standalone="no"?>
<svg
   height="35.601562"
   viewBox="0 -960 476.64062 712.03125"
   width="23.832031"
   version="1.1"
   id="svg1"
   sodipodi:docname="wine_bar_7.svg"
   inkscape:version="1.3.2 (091e20e, 2023-11-25, custom)"
   xmlns:inkscape="http://www.inkscape.org/namespaces/inkscape"
   xmlns:sodipodi="http://sodipodi.sourceforge.net/DTD/sodipodi-0.dtd"
   xmlns="http://www.w3.org/2000/svg"
   xmlns:svg="http://www.w3.org/2000/svg">
  <defs
     id="defs1" />
  <sodipodi:namedview
     id="namedview1"
     pagecolor="#ffffff"
     bordercolor="#000000"
     borderopacity="0.25"
     inkscape:showpageshadow="2"
     inkscape:pageopacity="0.0"
     inkscape:pagecheckerboard="0"
     inkscape:deskcolor="#d1d1d1"
     inkscape:zoom="33.234635"
     inkscape:cx="11.930325"
     inkscape:cy="11.659523"
     inkscape:window-width="1920"
     inkscape:window-height="1009"
     inkscape:window-x="-8"
     inkscape:window-y="-8"
     inkscape:window-maximized="1"
     inkscape:current-layer="svg1" />
  <path
     id="path1"
     d="m 0,-960 v 236.01562 c 0,57.93564 18.87074,109.82396 56.5625,155.625 37.69176,45.80037 88.68862,73.88694 153.04687,84.29688 v 177.69531 H 76.17187 v 58.39843 h 324.29688 v -58.39843 H 268.00781 V -484.0625 c 63.69164,-10.40994 114.37855,-38.46199 152.07031,-84.17969 37.69176,-45.71709 56.5625,-97.63988 56.5625,-155.74219 V -960 Z m 40.399999,40.4 399.840001,-2 -4,169.92 -8.84,56.40656 c -4.30794,39.28176 -20.05557,75.22352 -55.26,107.89062 -35.2051,32.66649 -90.50599,43.02282 -133.89769,43.02282 -43.39176,0 -108.77122,-18.35351 -144.122312,-51.02 -35.35182,-32.6671 -39.90934,-56.50775 -43.14,-95.78951 l -6.579999,-62.50237 z"
     sodipodi:nodetypes="csccccccccccscccccccssccc"
     style="display:inline;fill:#000000;fill-opacity:1"
     transform="translate(1.25e-6)" />
  <text
     xml:space="preserve"
     style="font-weight:bold;font-size:480px;font-family:Arial;-inkscape-font-specification:'Arial Bold';text-align:center;letter-spacing:-60px;text-anchor:middle;display:none;fill:#000000;fill-opacity:0;stroke:#000000;stroke-width:2;stroke-linecap:round;stroke-linejoin:round"
     x="243.60594"
     y="-577.91998"
     id="text1"><tspan
       sodipodi:role="line"
       id="tspan1"
       style="stroke-width:2"
       x="213.60594"
       y="-577.91998">7</tspan></text>
  <path
     style="fill:#000000;stroke:#2f3323;stroke-width:0.00300891;stroke-linecap:round;stroke-linejoin:round;stroke-opacity:0.155026"
     d="M 11.411505,20.969596 C 9.6321578,20.849016 7.3271531,20.105605 5.7319721,19.137831 4.5143799,18.399135 3.5106141,17.370291 2.9860764,16.323333 2.656115,15.664741 2.4884223,14.977164 2.3769886,13.825938 2.3513587,13.561154 2.2569789,12.633658 2.1672558,11.764835 L 2.0041229,10.185158 1.9114924,6.1231303 C 1.8605457,3.8890152 1.8192058,2.0056756 1.819626,1.9379311 l 7.641e-4,-0.1231716 3.9341488,-0.020067 c 2.1637819,-0.011037 6.7478881,-0.034937 10.1869021,-0.053111 3.439015,-0.018174 6.258592,-0.027205 6.265729,-0.020069 0.0071,0.00714 -0.03363,1.9820762 -0.09059,4.3887553 l -0.103566,4.3757812 -0.2092,1.32392 c -0.11506,0.728156 -0.231544,1.479631 -0.258853,1.669944 -0.281339,1.960599 -1.046422,3.472577 -2.482055,4.905105 -0.609726,0.608408 -1.140269,0.987224 -1.957255,1.397508 -1.653116,0.830184 -3.936404,1.306186 -5.694144,1.18707 z m 0.650829,-2.397104 c 0.08376,-2.25717 0.654253,-4.854661 1.59101,-7.243949 0.926803,-2.3638984 2.433079,-4.8772517 3.840959,-6.4089764 l 0.331875,-0.3610691 -0.0067,-1.2186083 -0.0067,-1.2186082 h -5.65675 -5.6567491 v 1.5646328 1.5646328 l 3.7078501,0.00764 3.70785,0.00764 -0.391917,0.5267619 C 10.755489,9.5123416 8.9897476,14.335399 8.8112031,18.662759 l -0.019553,0.473904 h 1.6248749 1.624874 z"
     id="path4"
     transform="matrix(20,0,0,20,0,-960)" />
</svg>
