<?xml version="1.0" encoding="UTF-8" standalone="no"?>
<svg
   height="35.601562"
   viewBox="0 -960 476.64062 712.03125"
   width="23.832031"
   version="1.1"
   id="svg1"
   sodipodi:docname="wine_bar_2.svg"
   inkscape:version="1.3.2 (091e20e, 2023-11-25, custom)"
   xmlns:inkscape="http://www.inkscape.org/namespaces/inkscape"
   xmlns:sodipodi="http://sodipodi.sourceforge.net/DTD/sodipodi-0.dtd"
   xmlns="http://www.w3.org/2000/svg"
   xmlns:svg="http://www.w3.org/2000/svg">
  <defs
     id="defs1" />
  <sodipodi:namedview
     id="namedview1"
     pagecolor="#ffffff"
     bordercolor="#000000"
     borderopacity="0.25"
     inkscape:showpageshadow="2"
     inkscape:pageopacity="0.0"
     inkscape:pagecheckerboard="0"
     inkscape:deskcolor="#d1d1d1"
     inkscape:zoom="33.234635"
     inkscape:cx="11.930325"
     inkscape:cy="11.659523"
     inkscape:window-width="1920"
     inkscape:window-height="1009"
     inkscape:window-x="-8"
     inkscape:window-y="-8"
     inkscape:window-maximized="1"
     inkscape:current-layer="svg1" />
  <path
     id="path1"
     d="m 0,-960 v 236.01562 c 0,57.93564 18.87074,109.82396 56.5625,155.625 37.69176,45.80037 88.68862,73.88694 153.04687,84.29688 v 177.69531 H 76.17187 v 58.39843 h 324.29688 v -58.39843 H 268.00781 V -484.0625 c 63.69164,-10.40994 114.37855,-38.46199 152.07031,-84.17969 37.69176,-45.71709 56.5625,-97.63988 56.5625,-155.74219 V -960 Z m 20.4,20.4 441.84,-4 -4,191.92 -4.84,56.40656 c -4.30794,39.28176 -20.05557,75.22352 -55.26,107.89062 -35.2051,32.66649 -116.50599,73.02282 -159.89769,73.02282 -43.39176,0 -134.77122,-48.35351 -170.12231,-81.02 -35.35182,-32.6671 -37.90934,-56.50775 -41.14,-95.78951 l -6.58,-62.50237 z"
     sodipodi:nodetypes="csccccccccccscccccccssccc"
     style="display:inline;fill:#000000;fill-opacity:1" />
  <text
     xml:space="preserve"
     style="font-weight:bold;font-size:480px;font-family:Arial;-inkscape-font-specification:'Arial Bold';text-align:center;letter-spacing:-60px;text-anchor:middle;display:none;fill:#000000;fill-opacity:0;stroke:#000000;stroke-width:2;stroke-linecap:round;stroke-linejoin:round"
     x="245.60344"
     y="-577.91998"
     id="text1"><tspan
       sodipodi:role="line"
       id="tspan1"
       style="stroke-width:2"
       x="215.60344"
       y="-577.91998">2</tspan></text>
  <path
     style="fill:#000000;stroke:#2f3323;stroke-width:0.00300891;stroke-linecap:round;stroke-linejoin:round;stroke-opacity:0.155026"
     d="M 11.418811,22.654507 C 10.797322,22.574944 9.6829142,22.23648 8.7559259,21.845746 8.0555213,21.550518 6.8599806,20.955825 6.1532194,20.551091 5.40529,20.122782 4.3853191,19.443435 3.8768926,19.034954 2.5192356,17.944182 1.6963926,16.726349 1.3246268,15.257522 1.1359145,14.51193 1.0832305,14.05474 0.92041567,11.749791 L 0.79926765,10.034712 0.70580861,5.4358271 c -0.0514025,-2.529387 -0.0883698,-4.60397461 -0.0821497,-4.61019477 0.00622,-0.00622 4.64132389,-0.0515813 10.30023009,-0.10080251 5.658907,-0.0492212 10.760138,-0.093658 11.33607,-0.0987483 l 1.047148,-0.009255 -0.0024,0.96285088 c -0.0013,0.5295681 -0.02192,2.7501431 -0.04581,4.9346112 l -0.04342,3.9717604 -0.121206,1.399142 c -0.134161,1.548679 -0.152984,1.713135 -0.258285,2.256682 -0.369943,1.909578 -1.363031,3.556886 -2.907679,4.823181 -1.599213,1.311027 -4.334465,2.793183 -6.255726,3.389803 -0.928164,0.288228 -1.622209,0.380504 -2.253785,0.29965 z m 6.371636,-5.074955 -0.0078,-1.55711 -3.2421,-0.0077 c -1.783155,-0.0042 -3.2421,-0.01498 -3.2421,-0.02393 0,-0.04058 0.31696,-0.476645 0.534742,-0.735689 0.251682,-0.299366 0.73516,-0.768409 2.113098,-2.050006 1.438041,-1.337497 2.013708,-1.963208 2.584691,-2.809383 0.693165,-1.0272436 1.061909,-1.9303572 1.21012,-2.9637752 0.05957,-0.4153959 0.04513,-1.2770121 -0.02824,-1.6849892 C 17.537631,4.7727077 17.152342,4.0440745 16.430879,3.3226106 15.600917,2.4926491 14.673596,2.0580641 13.344512,1.876198 12.888139,1.8137497 11.78812,1.8058887 11.351419,1.8619548 9.4525109,2.1057472 8.0289361,2.9749822 7.2810154,4.3473437 7.1033589,4.6733262 6.9215645,5.1404217 6.8015518,5.5792591 6.6702595,6.0593411 6.5123556,6.9806694 6.561368,6.9806694 c 0.010485,0 0.7643547,0.074799 1.6752665,0.1662194 0.9109117,0.091421 1.659003,0.1625061 1.6624247,0.1579677 0.00342,-0.00454 0.02232,-0.1504226 0.041997,-0.3241871 0.05296,-0.4676922 0.1691568,-0.9079751 0.3255778,-1.2336528 0.113939,-0.2372257 0.178821,-0.3273329 0.381454,-0.5297497 0.264943,-0.264661 0.51525,-0.4087883 0.891079,-0.513084 0.275063,-0.076333 1.074306,-0.077789 1.354009,-0.00247 0.571096,0.1537914 1.022168,0.5087554 1.25573,0.9881773 0.190852,0.3917524 0.231276,0.5935452 0.231448,1.1553751 1.33e-4,0.4315335 -0.0083,0.5121904 -0.08177,0.7782893 C 14.1454,8.178674 13.894648,8.6596896 13.504376,9.1470809 13.20776,9.5175098 12.216878,10.516618 11.042699,11.629193 8.6513915,13.89504 7.6520214,15.057245 7.0062512,16.32333 6.5576469,17.202854 6.312449,17.990593 6.1703563,19.008781 l -0.017846,0.127879 h 5.8228657 5.822866 z"
     id="path2"
     transform="matrix(20,0,0,20,0,-960)" />
</svg>
