<?xml version="1.0" encoding="UTF-8" standalone="no"?>
<svg
   height="35.601562"
   viewBox="0 -960 476.64062 712.03125"
   width="23.832031"
   version="1.1"
   id="svg1"
   sodipodi:docname="wine_bar_0.svg"
   inkscape:version="1.3.2 (091e20e, 2023-11-25, custom)"
   xmlns:inkscape="http://www.inkscape.org/namespaces/inkscape"
   xmlns:sodipodi="http://sodipodi.sourceforge.net/DTD/sodipodi-0.dtd"
   xmlns="http://www.w3.org/2000/svg"
   xmlns:svg="http://www.w3.org/2000/svg">
  <defs
     id="defs1" />
  <sodipodi:namedview
     id="namedview1"
     pagecolor="#ffffff"
     bordercolor="#000000"
     borderopacity="0.25"
     inkscape:showpageshadow="2"
     inkscape:pageopacity="0.0"
     inkscape:pagecheckerboard="0"
     inkscape:deskcolor="#d1d1d1"
     inkscape:zoom="33.234635"
     inkscape:cx="11.930325"
     inkscape:cy="9.2523959"
     inkscape:window-width="1920"
     inkscape:window-height="1009"
     inkscape:window-x="-8"
     inkscape:window-y="-8"
     inkscape:window-maximized="1"
     inkscape:current-layer="svg1" />
  <path
     id="path1"
     d="m 0,-960 v 236.01562 c 0,57.93564 18.87074,109.82396 56.5625,155.625 37.69176,45.80037 88.68862,73.88694 153.04687,84.29688 v 177.69531 H 76.17187 v 58.39843 h 324.29688 v -58.39843 H 268.00781 V -484.0625 c 63.69164,-10.40994 114.37855,-38.46199 152.07031,-84.17969 37.69176,-45.71709 56.5625,-97.63988 56.5625,-155.74219 V -960 Z m 16.4,14.4 449.84,-2 -4,191.92 -6.78,57.8013 c -4.30794,39.28176 -16.11557,77.82878 -51.32,110.49588 -35.2051,32.66649 -122.50599,81.02282 -165.89769,81.02282 -43.39176,0 -142.77122,-62.35351 -178.12231,-95.02 -35.35182,-32.6671 -33.90934,-50.50775 -37.14,-89.78951 l -2.58,-62.50237 z"
     sodipodi:nodetypes="csccccccccccscccccccssccc"
     style="fill:#000000;fill-opacity:1" />
  <text
     xml:space="preserve"
     style="font-weight:bold;font-size:480px;font-family:Arial;-inkscape-font-specification:'Arial Bold';text-align:center;letter-spacing:-60px;text-anchor:middle;display:none;fill:#000000;fill-opacity:0;stroke:#000000;stroke-width:2;stroke-linecap:round;stroke-linejoin:round"
     x="239.60031"
     y="-577.91998"
     id="text1"><tspan
       sodipodi:role="line"
       id="tspan1"
       style="stroke-width:2"
       x="209.60031"
       y="-577.91998">0</tspan></text>
  <path
     style="fill:#000000;stroke:#2f3323;stroke-width:0.00300891;stroke-linecap:round;stroke-linejoin:round;stroke-opacity:0.155026"
     d="M 11.328543,23.034095 C 9.797646,22.775842 7.1532424,21.544179 4.7920388,19.989641 2.9934485,18.805509 1.9911864,17.776964 1.3660166,16.473778 1.0117938,15.735389 0.8174601,15.009204 0.69366575,13.961339 0.60984602,13.251842 0.49803429,9.8498843 0.40454657,5.1646675 0.35374163,2.6185349 0.31664127,0.53086816 0.32210133,0.52540811 0.33234818,0.51516126 20.231356,0.42087655 22.333629,0.42111393 l 1.180997,1.3336e-4 -6.15e-4,5.07753431 c -6.04e-4,4.9793044 -0.002,5.1048934 -0.07434,6.4917214 -0.05453,1.046051 -0.09388,1.55126 -0.151155,1.940747 -0.2884,1.961175 -0.84397,3.20869 -1.952828,4.385011 -1.451643,1.539961 -5.691883,3.905337 -8.208228,4.578878 -0.672237,0.179936 -1.278427,0.22676 -1.798919,0.138956 z m 1.197227,-3.627673 c 0.882499,-0.09403 1.591032,-0.337427 2.240079,-0.769515 1.956587,-1.302552 2.845055,-4.170609 2.72538,-8.7977738 C 17.386697,5.7974917 16.314565,3.3226301 14.232141,2.3160037 13.633491,2.0266215 13.11507,1.893641 12.33991,1.8306259 11.82486,1.788756 11.179054,1.8262866 10.691343,1.9264312 7.6353446,2.5539383 6.1854373,5.562866 6.2840037,11.072786 c 0.073501,4.108728 0.8620417,6.286939 2.7289799,7.538345 0.9598893,0.643412 2.2330274,0.931649 3.5127864,0.795291 z"
     id="path2"
     transform="matrix(20,0,0,20,0,-960)" />
  <path
     style="fill:#000000;stroke:#2f3323;stroke-width:0.00300891;stroke-linecap:round;stroke-linejoin:round;stroke-opacity:0.155026"
     d="M 11.388721,16.540702 C 11.008167,16.410483 10.793332,16.251027 10.593542,15.9505 10.332479,15.557805 10.118193,14.950907 10.006804,14.288746 9.7425818,12.718056 9.733875,8.8644277 9.9905823,7.1090704 10.131711,6.1440369 10.382887,5.4886612 10.756096,5.1116711 c 0.496085,-0.5011105 1.217822,-0.620981 1.862338,-0.309308 0.257058,0.1243077 0.56299,0.4496899 0.718441,0.764119 0.153009,0.309488 0.346658,0.8889316 0.411742,1.2320293 0.16634,0.87687 0.21247,1.7049904 0.212116,3.8078936 -3.08e-4,1.831414 -0.01548,2.225739 -0.12212,3.174399 -0.192129,1.70912 -0.683569,2.596695 -1.548055,2.795896 -0.243853,0.05619 -0.683736,0.03863 -0.901837,-0.036 z"
     id="path3"
     transform="matrix(20,0,0,20,0,-960)" />
</svg>
