<?xml version="1.0" encoding="UTF-8" standalone="no"?>
<svg
   height="35.601562"
   viewBox="0 -960 476.64062 712.03125"
   width="23.832031"
   version="1.1"
   id="svg1"
   sodipodi:docname="wine_bar_10.svg"
   inkscape:version="1.3.2 (091e20e, 2023-11-25, custom)"
   xmlns:inkscape="http://www.inkscape.org/namespaces/inkscape"
   xmlns:sodipodi="http://sodipodi.sourceforge.net/DTD/sodipodi-0.dtd"
   xmlns="http://www.w3.org/2000/svg"
   xmlns:svg="http://www.w3.org/2000/svg">
  <defs
     id="defs1" />
  <sodipodi:namedview
     id="namedview1"
     pagecolor="#ffffff"
     bordercolor="#000000"
     borderopacity="0.25"
     inkscape:showpageshadow="2"
     inkscape:pageopacity="0.0"
     inkscape:pagecheckerboard="0"
     inkscape:deskcolor="#d1d1d1"
     inkscape:zoom="33.234635"
     inkscape:cx="11.930325"
     inkscape:cy="9.4028413"
     inkscape:window-width="1920"
     inkscape:window-height="1009"
     inkscape:window-x="-8"
     inkscape:window-y="-8"
     inkscape:window-maximized="1"
     inkscape:current-layer="svg1" />
  <path
     id="path1"
     d="m 0,-960 v 236.01562 c 0,57.93564 18.87074,109.82396 56.5625,155.625 37.69176,45.80037 88.68862,73.88694 153.04687,84.29688 v 177.69531 H 76.17187 v 58.39843 h 324.29688 v -58.39843 H 268.00781 V -484.0625 c 63.69164,-10.40994 114.37855,-38.46199 152.07031,-84.17969 37.69176,-45.71709 56.5625,-97.63988 56.5625,-155.74219 V -960 Z m 10.4,14.4 455.84,-2 v 195.92 l -6.84,52.4 c -4.30794,39.28176 -8.05557,75.2329 -43.26,107.9 -35.2051,32.66649 -134.50599,87.02 -177.89769,87.02 -43.39176,0 -138.77122,-54.35351 -174.12231,-87.02 -35.35182,-32.6671 -43.90934,-60.50775 -47.14,-99.78951 L 14.4,-749.68 Z"
     sodipodi:nodetypes="csccccccccccscccccccssccc"
     style="fill:#000000;fill-opacity:1" />
  <text
     xml:space="preserve"
     style="font-weight:bold;font-size:480px;font-family:Arial;-inkscape-font-specification:'Arial Bold';text-align:center;letter-spacing:-60px;text-anchor:middle;display:none;fill:#000000;fill-opacity:0;stroke:#000000;stroke-width:2;stroke-linecap:round;stroke-linejoin:round"
     x="231.60437"
     y="-577.91998"
     id="text1"><tspan
       sodipodi:role="line"
       id="tspan1"
       style="stroke-width:2"
       x="0"
       y="0">10</tspan></text>
  <path
     style="fill:#000000;fill-opacity:1;stroke:#2f3323;stroke-width:0.00300891;stroke-linecap:round;stroke-linejoin:round;stroke-opacity:0.155026"
     d="M 11.328543,23.034095 C 9.797646,22.775841 7.1532424,21.544179 4.7920388,19.989641 2.9934485,18.805509 1.9911864,17.776964 1.3660166,16.473778 1.0117937,15.735389 0.81746009,15.009204 0.69366575,13.961339 0.60984602,13.251842 0.49803429,9.8498843 0.40454657,5.1646675 0.35374163,2.6185349 0.31664127,0.53086816 0.32210133,0.5254081 0.33234817,0.51516126 20.231356,0.42087655 22.333629,0.42111393 l 1.180997,1.3336e-4 -6.16e-4,5.07753431 c -6.03e-4,4.9793044 -0.002,5.1048934 -0.07434,6.4917214 -0.05453,1.046051 -0.09388,1.55126 -0.151156,1.940747 -0.288399,1.961175 -0.843969,3.20869 -1.952827,4.385011 -1.451643,1.539961 -5.691883,3.905337 -8.208228,4.578878 -0.672237,0.179935 -1.278427,0.22676 -1.798919,0.138956 z m 6.080001,-3.640729 c 2.26059,-0.264436 3.747072,-1.753746 4.41564,-4.424043 0.196517,-0.784898 0.313765,-1.535131 0.402055,-2.572617 0.05331,-0.626383 0.05327,-2.9229194 -6.1e-5,-3.5505129 C 22.056372,6.8477625 21.680519,5.3804544 21.057962,4.2855461 20.574182,3.4347069 19.79803,2.6906798 18.989345,2.3025488 17.603316,1.6373196 15.636355,1.6503602 14.272933,2.3338176 12.354157,3.2956634 11.32917,5.4838035 11.088452,9.1320395 c -0.03878,0.5876881 -0.03883,2.3900895 -8.7e-5,3.0239535 0.138133,2.260038 0.552567,3.90875 1.255533,4.99479 1.076666,1.663382 2.944761,2.490559 5.064646,2.242583 z M 9.2148362,10.478526 9.2072622,1.8203901 H 7.8391506 6.4710387 L 6.4154157,1.9701993 C 6.1796087,2.6052985 5.7067502,3.3280448 5.1485557,3.9065475 4.3888236,4.69392 3.0091254,5.6155173 1.9784617,6.0240761 l -0.3993281,0.1582951 0.00779,1.5199679 0.00779,1.5199676 0.070711,-0.0077 C 1.8027559,9.1996503 2.6241672,8.8678205 3.1292656,8.623254 3.9961101,8.2035313 4.7463443,7.7207302 5.4579525,7.1246643 5.6500358,6.9637692 5.8173499,6.8316995 5.8297616,6.8311759 c 0.012412,-5.235e-4 0.022567,2.7679967 0.022567,6.1522671 v 6.15322 H 7.5373693 9.22241 Z"
     id="path3"
     transform="matrix(20,0,0,20,0,-960)" />
  <path
     style="fill:#000000;fill-opacity:1;stroke:#2f3323;stroke-width:0.00300891;stroke-linecap:round;stroke-linejoin:round;stroke-opacity:0.155026"
     d="m 16.22367,16.563994 c -0.249649,-0.06863 -0.480372,-0.203288 -0.671607,-0.391983 -0.324671,-0.32036 -0.624382,-1.040873 -0.763118,-1.834559 -0.138121,-0.790168 -0.211022,-2.06728 -0.210379,-3.68549 0.0014,-3.5802483 0.322217,-5.1541207 1.168068,-5.7307806 0.268938,-0.183349 0.502817,-0.2634406 0.818876,-0.2804224 0.321024,-0.017249 0.540308,0.027163 0.816599,0.1653859 0.439041,0.2196433 0.735539,0.6340447 0.967888,1.3527725 0.297653,0.9207309 0.390755,1.9656324 0.392256,4.4023536 0.0015,2.369639 -0.09937,3.588049 -0.373216,4.509726 -0.257884,0.867967 -0.652115,1.329666 -1.278433,1.49722 -0.189227,0.05062 -0.676045,0.04825 -0.866934,-0.0042 z"
     id="path4"
     transform="matrix(20,0,0,20,0,-960)" />
</svg>
