<?xml version="1.0" encoding="UTF-8" standalone="no"?>
<svg
   height="35.601562"
   viewBox="0 -960 476.64062 712.03125"
   width="23.832031"
   version="1.1"
   id="svg1"
   sodipodi:docname="wine_bar_6.svg"
   inkscape:version="1.3.2 (091e20e, 2023-11-25, custom)"
   xmlns:inkscape="http://www.inkscape.org/namespaces/inkscape"
   xmlns:sodipodi="http://sodipodi.sourceforge.net/DTD/sodipodi-0.dtd"
   xmlns="http://www.w3.org/2000/svg"
   xmlns:svg="http://www.w3.org/2000/svg">
  <defs
     id="defs1" />
  <sodipodi:namedview
     id="namedview1"
     pagecolor="#ffffff"
     bordercolor="#000000"
     borderopacity="0.25"
     inkscape:showpageshadow="2"
     inkscape:pageopacity="0.0"
     inkscape:pagecheckerboard="0"
     inkscape:deskcolor="#d1d1d1"
     inkscape:zoom="33.234635"
     inkscape:cx="11.930325"
     inkscape:cy="11.659523"
     inkscape:window-width="1920"
     inkscape:window-height="1009"
     inkscape:window-x="-8"
     inkscape:window-y="-8"
     inkscape:window-maximized="1"
     inkscape:current-layer="svg1" />
  <path
     id="path1"
     d="m 0,-960 v 236.01562 c 0,57.93564 18.87074,109.82396 56.5625,155.625 37.69176,45.80037 88.68862,73.88694 153.04687,84.29688 v 177.69531 H 76.17187 v 58.39843 h 324.29688 v -58.39843 H 268.00781 V -484.0625 c 63.69164,-10.40994 114.37855,-38.46199 152.07031,-84.17969 37.69176,-45.71709 56.5625,-97.63988 56.5625,-155.74219 V -960 Z m 36.399999,36.4 407.840001,-2 -4,173.92 -8.84,56.40656 c -4.30794,39.28176 -20.05557,75.22352 -55.26,107.89062 -35.2051,32.66649 -94.50599,47.02282 -137.89769,47.02282 -43.39176,0 -112.77122,-22.35351 -148.122312,-55.02 -35.35182,-32.6671 -39.909339,-56.50775 -43.139999,-95.78951 l -6.58,-62.50237 z"
     sodipodi:nodetypes="csccccccccccscccccccssccc"
     style="display:inline;fill:#000000;fill-opacity:1"
     transform="translate(1.25e-6)" />
  <text
     xml:space="preserve"
     style="font-weight:bold;font-size:480px;font-family:Arial;-inkscape-font-specification:'Arial Bold';text-align:center;letter-spacing:-60px;text-anchor:middle;display:none;fill:#000000;fill-opacity:0;stroke:#000000;stroke-width:2;stroke-linecap:round;stroke-linejoin:round"
     x="239.60594"
     y="-577.91998"
     id="text1"><tspan
       sodipodi:role="line"
       id="tspan1"
       style="stroke-width:2"
       x="209.60594"
       y="-577.91998">6</tspan></text>
  <path
     style="fill:#000000;stroke:#2f3323;stroke-width:0.00300891;stroke-linecap:round;stroke-linejoin:round;stroke-opacity:0.155026"
     d="M 11.489861,21.270715 C 10.151764,21.172471 8.3356339,20.632855 6.7300068,19.856449 6.0510744,19.528149 5.7468596,19.357102 5.205413,18.999235 4.6581511,18.637524 4.3545056,18.391087 3.9104716,17.948265 2.6982069,16.73931 2.2538011,15.739757 2.0776671,13.825938 2.0517752,13.544605 1.9830095,12.671269 1.9248543,11.885191 1.8242033,10.524703 1.8141359,10.244008 1.7155448,6.0493121 1.6585799,3.625656 1.6193133,1.6353235 1.6282858,1.6263511 c 0.00897,-0.00897 2.2527463,-0.026101 4.9861642,-0.038062 2.7334177,-0.011962 7.400297,-0.034773 10.370843,-0.050691 2.970545,-0.015918 5.408979,-0.019732 5.418742,-0.00848 0.0098,0.011257 -0.02739,2.01086 -0.08256,4.4435631 l -0.100307,4.4230958 -0.226089,1.459321 c -0.124349,0.802627 -0.253419,1.635732 -0.286821,1.851344 -0.253678,1.637502 -0.992378,3.148882 -2.126466,4.350752 -0.711753,0.754292 -1.238186,1.174688 -2.069556,1.65269 -1.793521,1.031201 -4.319477,1.685855 -6.022378,1.560827 z m 1.437738,-1.864585 c 0.720273,-0.07264 1.312475,-0.23557 1.906324,-0.524488 1.481601,-0.720826 2.518932,-2.096393 2.857662,-3.789444 0.104947,-0.524549 0.136202,-0.873189 0.136202,-1.51929 0,-1.131348 -0.183063,-1.975652 -0.617105,-2.846147 C 17.103411,10.511624 16.924618,10.206972 16.813364,10.049757 16.558537,9.6896548 15.882698,9.0119879 15.532673,8.7656025 15.007345,8.3958187 14.416944,8.1397831 13.76576,7.9993549 13.337031,7.9068995 12.353907,7.8981809 11.96655,7.9833992 11.237811,8.1437212 10.621279,8.4709623 10.057279,8.9967972 9.7512315,9.282135 9.7719063,9.3168512 9.8401848,8.6322627 10.069499,6.3330658 10.520257,5.3105178 11.524122,4.8122379 c 0.327356,-0.1624868 0.61169,-0.2191894 0.99294,-0.1980148 0.16549,0.00919 0.375362,0.03894 0.466381,0.066108 0.414048,0.1235874 0.77726,0.418044 0.971421,0.7875321 0.116498,0.221697 0.24201,0.6180393 0.276578,0.8733795 0.01176,0.086864 0.03117,0.1639828 0.04313,0.1713757 0.02741,0.016938 3.221297,-0.3333862 3.243698,-0.3557878 C 17.546821,6.12828 17.376374,5.4165785 17.25078,5.039923 17.001039,4.29095 16.626412,3.6719107 16.111578,3.1574893 15.315978,2.3625259 14.359763,1.9422304 13.098864,1.8332786 11.767119,1.7182051 10.394577,2.0470312 9.3577077,2.7295638 7.5987544,3.8874182 6.6914097,5.7057765 6.3806348,8.6957477 6.2003383,10.430384 6.2795909,12.626062 6.5766689,14.126829 c 0.400704,2.02426 1.1353252,3.304069 2.4645169,4.293518 0.3609214,0.268669 1.0072032,0.602694 1.4361212,0.742246 0.727409,0.236668 1.629414,0.326319 2.450292,0.243537 z"
     id="path3"
     transform="matrix(20,0,0,20,0,-960)" />
  <path
     style="fill:#000000;stroke:#2f3323;stroke-width:0.00300891;stroke-linecap:round;stroke-linejoin:round;stroke-opacity:0.155026"
     d="m 11.960414,16.561756 c -0.740325,-0.19443 -1.423624,-0.910585 -1.695244,-1.776758 -0.150701,-0.48057 -0.182821,-0.729244 -0.184118,-1.425441 -0.0013,-0.691712 0.02512,-0.918789 0.155735,-1.338965 0.510737,-1.643014 2.421849,-2.1485966 3.549408,-0.938992 0.524836,0.563026 0.735211,1.292918 0.734727,2.54913 -4.95e-4,1.285187 -0.254053,2.046818 -0.847987,2.547161 -0.213689,0.180016 -0.476179,0.316355 -0.738969,0.383823 -0.231492,0.05943 -0.747327,0.05945 -0.973552,4.2e-5 z"
     id="path4"
     transform="matrix(20,0,0,20,0,-960)" />
</svg>
