<?xml version="1.0" encoding="UTF-8" standalone="no"?>
<svg
   height="35.601562"
   viewBox="0 -960 476.64062 712.03125"
   width="23.832031"
   version="1.1"
   id="svg1"
   sodipodi:docname="wine_bar_8.svg"
   inkscape:version="1.3.2 (091e20e, 2023-11-25, custom)"
   xmlns:inkscape="http://www.inkscape.org/namespaces/inkscape"
   xmlns:sodipodi="http://sodipodi.sourceforge.net/DTD/sodipodi-0.dtd"
   xmlns="http://www.w3.org/2000/svg"
   xmlns:svg="http://www.w3.org/2000/svg">
  <defs
     id="defs1" />
  <sodipodi:namedview
     id="namedview1"
     pagecolor="#ffffff"
     bordercolor="#000000"
     borderopacity="0.25"
     inkscape:showpageshadow="2"
     inkscape:pageopacity="0.0"
     inkscape:pagecheckerboard="0"
     inkscape:deskcolor="#d1d1d1"
     inkscape:zoom="33.234635"
     inkscape:cx="11.930325"
     inkscape:cy="11.659523"
     inkscape:window-width="1920"
     inkscape:window-height="1009"
     inkscape:window-x="-8"
     inkscape:window-y="-8"
     inkscape:window-maximized="1"
     inkscape:current-layer="svg1" />
  <path
     id="path1"
     d="m 0,-960 v 236.01562 c 0,57.93564 18.87074,109.82396 56.5625,155.625 37.69176,45.80037 88.68862,73.88694 153.04687,84.29688 v 177.69531 H 76.17187 v 58.39843 h 324.29688 v -58.39843 H 268.00781 V -484.0625 c 63.69164,-10.40994 114.37855,-38.46199 152.07031,-84.17969 37.69176,-45.71709 56.5625,-97.63988 56.5625,-155.74219 V -960 Z m 40.399999,26.4 393.840001,16 -2,165.92 -8.84,56.40656 c -4.30794,39.28176 -22.05557,75.22352 -57.26,107.89062 -35.2051,32.66649 -84.50599,39.02282 -127.89769,39.02282 -43.39176,0 -102.77122,-14.35351 -138.12231,-47.02 -35.351822,-32.6671 -41.909342,-56.50775 -45.140002,-95.78951 l -2.58,-62.50237 z"
     sodipodi:nodetypes="csccccccccccscccccccssccc"
     style="display:inline;fill:#000000;fill-opacity:1"
     transform="translate(1.25e-6)" />
  <text
     xml:space="preserve"
     style="font-weight:bold;font-size:480px;font-family:Arial;-inkscape-font-specification:'Arial Bold';text-align:center;letter-spacing:-60px;text-anchor:middle;display:none;fill:#000000;fill-opacity:0;stroke:#000000;stroke-width:2;stroke-linecap:round;stroke-linejoin:round"
     x="243.60594"
     y="-577.91998"
     id="text1"><tspan
       sodipodi:role="line"
       id="tspan1"
       style="stroke-width:2"
       x="213.60594"
       y="-577.91998">8</tspan></text>
  <path
     style="fill:#000000;stroke:#2f3323;stroke-width:0.00300891;stroke-linecap:round;stroke-linejoin:round;stroke-opacity:0.155026"
     d="m 11.845861,16.697266 c -1.008137,-0.130885 -1.770721,-0.883083 -1.995177,-1.968003 -0.229709,-1.110312 0.037,-2.183802 0.710587,-2.860076 0.38557,-0.387107 0.762546,-0.54051 1.414188,-0.575473 0.700784,-0.0376 1.269182,0.169937 1.743536,0.636611 0.527011,0.518478 0.750135,1.120184 0.747558,2.015969 -0.0013,0.451305 -0.05768,0.860824 -0.163646,1.188519 -0.282889,0.874861 -0.970749,1.452841 -1.860278,1.563114 -0.282097,0.03497 -0.322657,0.03493 -0.596768,-6.61e-4 z"
     id="path4"
     transform="matrix(20,0,0,20,0,-960)" />
  <path
     style="fill:#000000;stroke:#2f3323;stroke-width:0.00300891;stroke-linecap:round;stroke-linejoin:round;stroke-opacity:0.155026"
     d="M 11.809411,8.5437589 C 11.217414,8.4908289 10.694187,8.2024758 10.407298,7.7710473 10.020296,7.1890666 9.9622074,6.1922333 10.277924,5.5509209 c 0.326781,-0.6637857 0.982698,-1.0375571 1.82077,-1.0375571 1.088192,0 1.84834,0.6627669 1.973417,1.7206067 0.0596,0.5040809 -0.04519,1.0645021 -0.267767,1.4319909 -0.393309,0.6493795 -1.09524,0.9582389 -1.994933,0.8777975 z"
     id="path5"
     transform="matrix(20,0,0,20,0,-960)" />
  <path
     style="fill:#000000;stroke:#2f3323;stroke-width:0.00300891;stroke-linecap:round;stroke-linejoin:round;stroke-opacity:0.155026"
     d="m 11.358632,20.774163 c -0.05792,-0.0068 -0.254252,-0.02673 -0.436291,-0.04432 C 9.5001708,20.592469 7.7709047,20.084806 6.4691548,19.422516 5.6606257,19.011162 5.1132374,18.627384 4.5216115,18.057079 3.221767,16.804079 2.7566381,15.787105 2.5726715,13.795849 2.5543245,13.597261 2.4655766,12.730695 2.3754539,11.870147 L 2.2115945,10.305514 2.0159923,5.8135707 C 1.9084111,3.3430018 1.8203901,1.2727586 1.8203901,1.2130302 v -0.108597 l 0.3084132,0.017878 c 0.1696272,0.00983 4.7021729,0.190144 10.0723237,0.4006916 5.370151,0.2105477 9.775968,0.3932531 9.790706,0.4060121 0.01562,0.013527 -0.01319,1.7707193 -0.0691,4.2148933 l -0.0959,4.1916948 -0.208531,1.354009 c -0.114692,0.744705 -0.242989,1.578976 -0.285103,1.853936 -0.158342,1.033783 -0.39817,1.798917 -0.828873,2.644384 -0.60022,1.178229 -1.678906,2.401332 -2.724195,3.088918 -1.148966,0.755784 -2.686822,1.251488 -4.465706,1.43945 -0.419684,0.04434 -1.738313,0.08336 -1.955791,0.05786 z m 1.7764,-1.379614 c 1.883762,-0.234891 3.332711,-1.211332 4.115222,-2.773234 0.519186,-1.036299 0.701402,-2.419331 0.469189,-3.561166 -0.274385,-1.349196 -1.113784,-2.415838 -2.4147,-3.0684054 L 14.993247,9.8354903 15.259609,9.6834065 c 0.146499,-0.083646 0.347603,-0.2100691 0.446897,-0.2809395 0.74388,-0.5309401 1.279355,-1.3533207 1.478941,-2.2713521 0.07777,-0.3577241 0.07855,-1.3705765 0.0014,-1.7532884 C 16.906589,3.9886796 15.982419,2.8550803 14.66391,2.2832115 13.724172,1.8756251 12.359201,1.7182667 11.072786,1.869215 9.3015747,2.0770494 7.9963731,2.918979 7.3106992,4.2959753 7.1506252,4.617442 7.0509741,4.9112972 6.9614783,5.3257693 6.8683562,5.7570366 6.8603943,6.7080508 6.9466161,7.1010258 7.2100674,8.3017644 7.8606379,9.1378016 8.9678969,9.6985389 l 0.2654664,0.1344375 -0.270228,0.1357165 c -0.5418916,0.2721541 -1.110336,0.7054031 -1.4258177,1.0867091 -0.8001378,0.967086 -1.1667798,2.167091 -1.0811718,3.53864 0.1049496,1.681433 0.8412835,2.971039 2.222999,3.893335 0.6958277,0.464466 1.6844912,0.807912 2.6343542,0.915134 0.3927,0.04433 1.438853,0.03976 1.821533,-0.008 z"
     id="path6"
     transform="matrix(20,0,0,20,0,-960)" />
</svg>
