<?xml version="1.0" encoding="UTF-8" standalone="no"?>
<svg
   height="35.601562"
   viewBox="0 -960 476.64062 712.03125"
   width="23.832031"
   version="1.1"
   id="svg1"
   sodipodi:docname="wine_bar_9.svg"
   inkscape:version="1.3.2 (091e20e, 2023-11-25, custom)"
   xmlns:inkscape="http://www.inkscape.org/namespaces/inkscape"
   xmlns:sodipodi="http://sodipodi.sourceforge.net/DTD/sodipodi-0.dtd"
   xmlns="http://www.w3.org/2000/svg"
   xmlns:svg="http://www.w3.org/2000/svg">
  <defs
     id="defs1" />
  <sodipodi:namedview
     id="namedview1"
     pagecolor="#ffffff"
     bordercolor="#000000"
     borderopacity="0.25"
     inkscape:showpageshadow="2"
     inkscape:pageopacity="0.0"
     inkscape:pagecheckerboard="0"
     inkscape:deskcolor="#d1d1d1"
     inkscape:zoom="33.234635"
     inkscape:cx="11.930325"
     inkscape:cy="11.659523"
     inkscape:window-width="1920"
     inkscape:window-height="1009"
     inkscape:window-x="-8"
     inkscape:window-y="-8"
     inkscape:window-maximized="1"
     inkscape:current-layer="svg1" />
  <path
     id="path1"
     d="m 0,-960 v 236.01562 c 0,57.93564 18.87074,109.82396 56.5625,155.625 37.69176,45.80037 88.68862,73.88694 153.04687,84.29688 v 177.69531 H 76.17187 v 58.39843 h 324.29688 v -58.39843 H 268.00781 V -484.0625 c 63.69164,-10.40994 114.37855,-38.46199 152.07031,-84.17969 37.69176,-45.71709 56.5625,-97.63988 56.5625,-155.74219 V -960 Z m 147.7,40.08 148.30971,-18.94 128.23029,187.18 -6.84,56.40656 c -4.30794,39.28176 -24.05557,75.22352 -59.26,107.89062 -35.2051,32.66649 -76.50599,33.02282 -119.89769,33.02282 -43.39176,0 -92.77122,-8.35351 -128.12231,-41.02 -35.351824,-32.6671 -45.909342,-56.50775 -49.140002,-95.78951 l -2.58,-62.50237 z"
     sodipodi:nodetypes="csccccccccccscccccccssccc"
     style="display:inline;fill:#000000;fill-opacity:1"
     transform="translate(1.25e-6)" />
  <text
     xml:space="preserve"
     style="font-weight:bold;font-size:480px;font-family:Arial;-inkscape-font-specification:'Arial Bold';text-align:center;letter-spacing:-60px;text-anchor:middle;display:none;fill:#000000;fill-opacity:0;stroke:#000000;stroke-width:2;stroke-linecap:round;stroke-linejoin:round"
     x="245.60219"
     y="-577.91998"
     id="text1"><tspan
       sodipodi:role="line"
       id="tspan1"
       style="stroke-width:2"
       x="215.60219"
       y="-577.91998">9</tspan></text>
  <path
     style="fill:#000000;stroke:#2f3323;stroke-width:0.00300891;stroke-linecap:round;stroke-linejoin:round;stroke-opacity:0.155026"
     d="M 11.377843,10.786011 C 10.689324,10.612936 10.129478,10.058707 9.8658489,9.2891882 9.62432,8.5841797 9.5774425,7.2671762 9.7632669,6.4071894 9.9481333,5.5516364 10.407082,4.9731292 11.091416,4.7330517 c 0.269986,-0.094716 0.712248,-0.1260195 0.996436,-0.070528 0.820938,0.1603005 1.555073,0.9199054 1.840293,1.904142 0.13488,0.4654397 0.177739,0.8714436 0.15964,1.5122552 -0.01797,0.6361219 -0.0706,0.9491417 -0.227692,1.3540091 -0.235416,0.606747 -0.707856,1.083522 -1.290629,1.302473 -0.173192,0.06507 -0.262232,0.07758 -0.60905,0.08558 -0.285668,0.0066 -0.458537,-0.0038 -0.582571,-0.03497 z"
     id="path7"
     transform="matrix(20,0,0,20,0,-960)" />
  <path
     style="fill:#000000;stroke:#2f3323;stroke-width:0.00300891;stroke-linecap:round;stroke-linejoin:round;stroke-opacity:0.155026"
     d="M 10.834603,20.534547 C 8.6313516,20.306293 6.6413899,19.569587 5.2956802,18.483978 4.9517889,18.206555 4.3301813,17.57961 4.0480087,17.225595 3.3079726,16.297141 2.9638858,15.413005 2.7975407,14.012499 2.7704159,13.784127 2.717476,12.863401 2.6798964,11.96644 L 2.61157,10.335603 2.6716971,10.215247 C 2.8143115,9.9297757 7.153945,1.8478042 7.178145,1.8226062 7.199161,1.8007242 14.793059,0.83573582 14.80752,0.85310987 c 0.002,0.002436 1.535594,2.15493993 3.407926,4.78334173 l 3.404239,4.7789124 -0.225943,1.44953 c -0.124268,0.797241 -0.24728,1.589363 -0.273359,1.760271 -0.172665,1.131563 -0.613609,2.24764 -1.279283,3.238004 -0.446983,0.665005 -1.175693,1.480755 -1.757556,1.967486 -1.117161,0.93451 -2.510169,1.459345 -4.453185,1.677796 -0.602356,0.06772 -2.245878,0.08306 -2.795756,0.0261 z m 1.598173,-1.142651 c 1.15064,-0.147949 2.179577,-0.610906 3.03942,-1.367548 1.583972,-1.393856 2.309305,-3.517748 2.404187,-7.039844 C 17.932478,8.9022293 17.661304,6.8736843 17.149523,5.5471426 16.794616,4.6272177 16.419373,4.0416295 15.770526,3.3951367 14.911227,2.5389555 13.885871,2.0299144 12.682552,1.8621025 12.277153,1.8055665 11.362342,1.8126368 10.949877,1.8754939 10.0402,2.0141229 9.2231815,2.3452854 8.5423833,2.8513243 8.1830004,3.1184547 7.6287849,3.6809481 7.3791438,4.0319384 6.9840782,4.5873923 6.639658,5.3807277 6.4868791,6.0871759 6.2928935,6.9841625 6.2806401,8.1847527 6.4564166,9.0718613 c 0.2126788,1.0733447 0.665908,1.9722467 1.3738493,2.7247927 0.8663679,0.920955 1.9699907,1.457089 3.1439411,1.527311 1.314001,0.0786 2.302047,-0.267856 3.212033,-1.126291 l 0.216365,-0.204108 -0.01634,0.10378 c -0.009,0.05708 -0.02472,0.212102 -0.03495,0.344494 -0.05768,0.746055 -0.24431,1.809006 -0.407793,2.322619 -0.19615,0.616244 -0.403211,0.961884 -0.795955,1.328664 -0.389704,0.363941 -0.842131,0.546601 -1.35144,0.545623 -0.539116,-0.001 -0.930191,-0.142151 -1.266935,-0.457158 -0.307435,-0.28759 -0.450837,-0.613768 -0.6024151,-1.370232 -0.010227,-0.05104 -0.033786,-0.06721 -0.095737,-0.06572 -0.045194,0.0011 -0.7727165,0.07917 -1.6167155,0.17352 -1.4772625,0.16514 -1.5348858,0.173924 -1.5437094,0.235308 -0.014171,0.09859 0.1361167,0.73901 0.2640528,1.125213 0.4164165,1.257045 1.1346621,2.130403 2.1823294,2.653628 0.4248775,0.212191 0.9407138,0.37158 1.4292318,0.441619 0.124117,0.01779 0.259518,0.03732 0.300891,0.0434 0.219527,0.03222 1.265051,0.0148 1.585658,-0.02642 z"
     id="path8"
     transform="matrix(20,0,0,20,0,-960)" />
</svg>
