<?xml version="1.0" encoding="UTF-8" standalone="no"?>
<svg
   height="35.601562"
   viewBox="0 -960 476.64062 712.03125"
   width="23.832031"
   version="1.1"
   id="svg1"
   sodipodi:docname="wine_bar_1.svg"
   inkscape:version="1.3.2 (091e20e, 2023-11-25, custom)"
   xmlns:inkscape="http://www.inkscape.org/namespaces/inkscape"
   xmlns:sodipodi="http://sodipodi.sourceforge.net/DTD/sodipodi-0.dtd"
   xmlns="http://www.w3.org/2000/svg"
   xmlns:svg="http://www.w3.org/2000/svg">
  <defs
     id="defs1" />
  <sodipodi:namedview
     id="namedview1"
     pagecolor="#ffffff"
     bordercolor="#000000"
     borderopacity="0.25"
     inkscape:showpageshadow="2"
     inkscape:pageopacity="0.0"
     inkscape:pagecheckerboard="0"
     inkscape:deskcolor="#d1d1d1"
     inkscape:zoom="33.234635"
     inkscape:cx="11.930325"
     inkscape:cy="11.659523"
     inkscape:window-width="1920"
     inkscape:window-height="1009"
     inkscape:window-x="-8"
     inkscape:window-y="-8"
     inkscape:window-maximized="1"
     inkscape:current-layer="svg1" />
  <path
     id="path1"
     d="m 0,-960 v 236.01562 c 0,57.93564 18.87074,109.82396 56.5625,155.625 37.69176,45.80037 88.68862,73.88694 153.04687,84.29688 v 177.69531 H 76.17187 v 58.39843 h 324.29688 v -58.39843 H 268.00781 V -484.0625 c 63.69164,-10.40994 114.37855,-38.46199 152.07031,-84.17969 37.69176,-45.71709 56.5625,-97.63988 56.5625,-155.74219 V -960 Z m 12.4,16.4 453.84,-4 -2,195.92 -4.84,56.40656 c -4.30794,39.28176 -18.05557,75.22352 -53.26,107.89062 -35.2051,32.66649 -124.50599,81.02282 -167.89769,81.02282 -43.39176,0 -134.77122,-48.35633 -170.12231,-81.02282 -35.35182,-32.6671 -43.90934,-64.50493 -47.14,-103.78669 l -4.58,-62.50237 z"
     sodipodi:nodetypes="csccccccccccscccccccssccc"
     style="fill:#000000;fill-opacity:1" />
  <text
     xml:space="preserve"
     style="font-weight:bold;font-size:480px;font-family:Arial;-inkscape-font-specification:'Arial Bold';text-align:center;letter-spacing:-60px;text-anchor:middle;display:none;fill:#000000;fill-opacity:0;stroke:#000000;stroke-width:2;stroke-linecap:round;stroke-linejoin:round"
     x="241.60031"
     y="-577.91998"
     id="text1"><tspan
       sodipodi:role="line"
       id="tspan1"
       style="stroke-width:2"
       x="211.60031"
       y="-577.91998">1</tspan></text>
  <path
     style="fill:#000000;stroke:#2f3323;stroke-width:0.00300891;stroke-linecap:round;stroke-linejoin:round;stroke-opacity:0.155026"
     d="M 11.328543,23.034095 C 9.797646,22.775842 7.1532424,21.544179 4.7920388,19.989641 2.9934485,18.805509 1.9911864,17.776964 1.3660166,16.473778 1.0117938,15.735389 0.8174601,15.009204 0.69366575,13.961339 0.60984602,13.251842 0.49803429,9.8498843 0.40454657,5.1646675 0.35374163,2.6185349 0.31664127,0.53086816 0.32210133,0.52540811 0.33234818,0.51516126 20.231356,0.42087655 22.333629,0.42111393 l 1.180997,1.3336e-4 -6.15e-4,5.07753431 c -6.04e-4,4.9793044 -0.002,5.1048934 -0.07434,6.4917214 -0.05453,1.046051 -0.09388,1.55126 -0.151155,1.940747 -0.2884,1.961175 -0.84397,3.20869 -1.952828,4.385011 -1.451643,1.539961 -5.691883,3.905337 -8.208228,4.578878 -0.672237,0.179936 -1.278427,0.22676 -1.798919,0.138956 z M 14.879056,10.471004 V 1.8053455 h -1.36672 -1.36672 l -0.03672,0.1128341 C 11.937974,2.4434141 11.465316,3.2028206 10.968942,3.7497141 10.176674,4.6226182 8.7033894,5.6217533 7.5598844,6.0616303 L 7.2665158,6.1744815 v 1.5314349 c 0,0.8422891 0.00859,1.5314349 0.019078,1.5314349 0.045286,0 0.6593167,-0.230307 1.0150176,-0.3807067 1.0826787,-0.4577851 2.1278216,-1.1093018 2.9752756,-1.854713 l 0.233191,-0.205112 v 6.1699214 6.169922 h 1.684989 1.684989 z"
     id="path2"
     transform="matrix(20,0,0,20,0,-960)" />
</svg>
