<?xml version="1.0" encoding="UTF-8" standalone="no"?>
<svg
   height="35.601562"
   viewBox="0 -960 476.64062 712.03125"
   width="23.832031"
   version="1.1"
   id="svg1"
   sodipodi:docname="wine_bar_3.svg"
   inkscape:version="1.3.2 (091e20e, 2023-11-25, custom)"
   xmlns:inkscape="http://www.inkscape.org/namespaces/inkscape"
   xmlns:sodipodi="http://sodipodi.sourceforge.net/DTD/sodipodi-0.dtd"
   xmlns="http://www.w3.org/2000/svg"
   xmlns:svg="http://www.w3.org/2000/svg">
  <defs
     id="defs1" />
  <sodipodi:namedview
     id="namedview1"
     pagecolor="#ffffff"
     bordercolor="#000000"
     borderopacity="0.25"
     inkscape:showpageshadow="2"
     inkscape:pageopacity="0.0"
     inkscape:pagecheckerboard="0"
     inkscape:deskcolor="#d1d1d1"
     inkscape:zoom="33.234635"
     inkscape:cx="11.930325"
     inkscape:cy="11.659523"
     inkscape:window-width="1920"
     inkscape:window-height="1009"
     inkscape:window-x="-8"
     inkscape:window-y="-8"
     inkscape:window-maximized="1"
     inkscape:current-layer="svg1" />
  <path
     id="path1"
     d="m 0,-960 v 236.01562 c 0,57.93564 18.87074,109.82396 56.5625,155.625 37.69176,45.80037 88.68862,73.88694 153.04687,84.29688 v 177.69531 H 76.17187 v 58.39843 h 324.29688 v -58.39843 H 268.00781 V -484.0625 c 63.69164,-10.40994 114.37855,-38.46199 152.07031,-84.17969 37.69176,-45.71709 56.5625,-97.63988 56.5625,-155.74219 V -960 Z m 24.4,24.4 433.84,-4 -4,187.92 -4.84,56.40656 c -4.30794,39.28176 -20.05557,75.22352 -55.26,107.89062 -35.2051,32.66649 -112.50599,67.02282 -155.89769,67.02282 -43.39176,0 -130.77122,-42.35351 -166.12231,-75.02 -35.35182,-32.6671 -37.90934,-56.50775 -41.14,-95.78951 l -6.58,-62.50237 z"
     sodipodi:nodetypes="csccccccccccscccccccssccc"
     style="display:inline;fill:#000000;fill-opacity:1" />
  <text
     xml:space="preserve"
     style="font-weight:bold;font-size:480px;font-family:Arial;-inkscape-font-specification:'Arial Bold';text-align:center;letter-spacing:-60px;text-anchor:middle;display:none;fill:#000000;fill-opacity:0;stroke:#000000;stroke-width:2;stroke-linecap:round;stroke-linejoin:round"
     x="241.60968"
     y="-577.91998"
     id="text1"><tspan
       sodipodi:role="line"
       id="tspan1"
       style="stroke-width:2"
       x="211.60968"
       y="-577.91998">3</tspan></text>
  <path
     style="fill:#000000;stroke:#2f3323;stroke-width:0.00300891;stroke-linecap:round;stroke-linejoin:round;stroke-opacity:0.155026"
     d="M 11.497168,22.26608 C 9.9972029,22.077272 7.5811674,21.059939 5.4009921,19.699131 4.3726251,19.057251 3.7620748,18.588173 3.1264419,17.951623 2.3749427,17.199039 1.989031,16.612872 1.7302073,15.830861 1.5150094,15.18066 1.5193543,15.211234 1.1887239,12.020592 L 1.0078809,10.275425 1.0079327,5.6523949 1.0079846,1.029365 1.4668432,1.01235 C 1.7192155,1.00299 5.3174948,0.9672287 9.4630195,0.9328759 13.608544,0.8985231 18.372471,0.8563071 20.049525,0.8390625 c 1.677052,-0.0172446 3.054032,-0.026508 3.059955,-0.0205853 0.0059,0.005923 -0.03551,2.1903191 -0.09207,4.8542144 l -0.102834,4.8434454 -0.122187,1.399143 c -0.132001,1.511512 -0.167561,1.800746 -0.287753,2.340525 -0.460145,2.066491 -1.71316,3.853349 -3.668869,5.231979 -1.82438,1.286052 -4.4727,2.461996 -6.151544,2.731494 -0.363474,0.05835 -0.920778,0.08032 -1.18706,0.0468 z m 1.489226,-2.901453 c 1.2043,-0.192327 2.176853,-0.664045 3.074589,-1.49127 0.252402,-0.232578 0.636648,-0.689044 0.848871,-1.008421 1.01,-1.519958 1.140363,-3.664453 0.309118,-5.085056 C 16.68347,10.864704 15.883046,10.234366 14.868881,9.9291718 L 14.602947,9.8491441 14.812233,9.7248097 C 15.82412,9.1236588 16.563404,8.2551134 16.831467,7.3525188 16.954224,6.939185 16.993183,6.6069232 16.975617,6.1231303 16.945336,5.2891699 16.740224,4.6746393 16.252532,3.9567156 16.007873,3.596557 15.369022,2.9572657 15.014457,2.7177875 14.250791,2.2019967 13.404304,1.9190252 12.366617,1.8326439 10.543401,1.6808718 8.7268117,2.3274541 7.7479413,3.4765783 7.3538744,3.9391848 7.0403653,4.5246169 6.8060067,5.2355021 6.6688411,5.6515698 6.4960331,6.3405727 6.522266,6.3668056 6.5448608,6.3894004 9.5290127,6.8936948 9.5809423,6.8836941 9.612408,6.8776344 9.6378543,6.8090033 9.6622168,6.6644914 9.7252688,6.2904816 9.7943426,6.069019 9.9436828,5.7620612 10.32463,4.9790533 11.05059,4.5566488 11.91762,4.613513 c 0.828318,0.054326 1.423152,0.5302694 1.62348,1.2989936 0.07093,0.2721962 0.06465,0.8424739 -0.01253,1.1360715 -0.102078,0.3883494 -0.228128,0.607812 -0.515041,0.8967265 -0.453199,0.456361 -0.923358,0.6340338 -1.814684,0.6857678 l -0.336686,0.019542 -0.184036,1.3540086 c -0.10122,0.744705 -0.17569,1.363235 -0.16549,1.374511 0.0102,0.01128 0.150998,-0.01165 0.312884,-0.05095 1.084035,-0.263161 1.813015,-0.211911 2.380021,0.167326 0.833346,0.557376 1.220037,1.57502 1.068467,2.811855 -0.11494,0.937926 -0.595474,1.69299 -1.319616,2.073516 -0.535966,0.281642 -1.337218,0.311933 -1.906647,0.07208 -0.772729,-0.325486 -1.3110986,-1.080002 -1.466537,-2.055328 -0.0211,-0.132392 -0.046485,-0.250507 -0.056412,-0.262478 -0.00993,-0.01197 -0.2343741,0.0051 -0.4987715,0.03802 -0.6986633,0.08689 -2.7169617,0.329771 -2.7403111,0.329771 -0.032076,0 0.015116,0.348996 0.097175,0.718624 0.2026786,0.912951 0.5975895,1.702335 1.1911535,2.380986 0.8945165,1.022746 2.1329739,1.637133 3.6341451,1.802866 0.357636,0.03948 1.429513,0.01489 1.778207,-0.04079 z"
     id="path2"
     transform="matrix(20,0,0,20,0,-960)" />
</svg>
