<?xml version="1.0" encoding="UTF-8" standalone="no"?>
<svg
   height="35.601562"
   viewBox="0 -960 476.64062 712.03125"
   width="23.832031"
   version="1.1"
   id="svg1"
   sodipodi:docname="wine_bar_5.svg"
   inkscape:version="1.3.2 (091e20e, 2023-11-25, custom)"
   xmlns:inkscape="http://www.inkscape.org/namespaces/inkscape"
   xmlns:sodipodi="http://sodipodi.sourceforge.net/DTD/sodipodi-0.dtd"
   xmlns="http://www.w3.org/2000/svg"
   xmlns:svg="http://www.w3.org/2000/svg">
  <defs
     id="defs1" />
  <sodipodi:namedview
     id="namedview1"
     pagecolor="#ffffff"
     bordercolor="#000000"
     borderopacity="0.25"
     inkscape:showpageshadow="2"
     inkscape:pageopacity="0.0"
     inkscape:pagecheckerboard="0"
     inkscape:deskcolor="#d1d1d1"
     inkscape:zoom="33.234635"
     inkscape:cx="11.930325"
     inkscape:cy="10.907296"
     inkscape:window-width="1920"
     inkscape:window-height="1009"
     inkscape:window-x="-8"
     inkscape:window-y="-8"
     inkscape:window-maximized="1"
     inkscape:current-layer="svg1" />
  <path
     id="path1"
     d="m 0,-960 v 236.01562 c 0,57.93564 18.87074,109.82396 56.5625,155.625 37.69176,45.80037 88.68862,73.88694 153.04687,84.29688 v 177.69531 H 76.17187 v 58.39843 h 324.29688 v -58.39843 H 268.00781 V -484.0625 c 63.69164,-10.40994 114.37855,-38.46199 152.07031,-84.17969 37.69176,-45.71709 56.5625,-97.63988 56.5625,-155.74219 V -960 Z m 32.399999,32.4 415.840001,-2 -4,177.92 -8.84,56.40656 c -4.30794,39.28176 -20.05557,75.22352 -55.26,107.89062 -35.2051,32.66649 -98.50599,53.02282 -141.89769,53.02282 -43.39176,0 -118.77122,-28.35351 -154.122312,-61.02 -35.35182,-32.6671 -39.909339,-56.50775 -43.139999,-95.78951 l -4.58,-62.50237 z"
     sodipodi:nodetypes="csccccccccccscccccccssccc"
     style="display:inline;fill:#000000;fill-opacity:1"
     transform="translate(1.25e-6)" />
  <text
     xml:space="preserve"
     style="font-weight:bold;font-size:480px;font-family:Arial;-inkscape-font-specification:'Arial Bold';text-align:center;letter-spacing:-60px;text-anchor:middle;display:none;fill:#000000;fill-opacity:0;stroke:#000000;stroke-width:2;stroke-linecap:round;stroke-linejoin:round"
     x="237.60844"
     y="-577.91998"
     id="text1"><tspan
       sodipodi:role="line"
       id="tspan1"
       style="stroke-width:2"
       x="207.60844"
       y="-577.91998">5</tspan></text>
  <path
     style="fill:#000000;stroke:#2f3323;stroke-width:0.00300891;stroke-linecap:round;stroke-linejoin:round;stroke-opacity:0.155026"
     d="M 11.569256,21.571186 C 9.6377673,21.434262 6.5215634,20.162122 4.5885866,18.72144 4.1435125,18.389719 3.2888601,17.541194 2.984445,17.128799 2.2939616,16.193394 2.0251715,15.374206 1.8661629,13.720626 1.8399056,13.447568 1.7501595,12.581002 1.6667273,11.794924 L 1.5150322,10.365692 1.4625896,5.9125066 C 1.4337462,3.4632545 1.4185778,1.4490913 1.4288821,1.4365883 1.4480976,1.4132725 22.693721,1.3030209 22.711525,1.3261445 c 0.0054,0.00705 -0.0351,2.0506039 -0.09005,4.5412285 l -0.09992,4.528408 -0.27036,1.414188 c -0.148698,0.777803 -0.284193,1.515738 -0.301101,1.639855 -0.253695,1.862345 -0.999417,3.396314 -2.316955,4.766038 -0.797884,0.829487 -1.658322,1.437067 -2.903598,2.050315 -1.462889,0.720415 -3.15737,1.228128 -4.317067,1.293512 -0.15761,0.0089 -0.340724,0.02015 -0.40692,0.02503 -0.0662,0.0049 -0.262528,-0.0012 -0.436292,-0.01353 z m 1.48941,-2.220952 c 0.657858,-0.112562 1.106835,-0.260289 1.669945,-0.549463 0.48448,-0.248795 0.856814,-0.523082 1.279942,-0.942895 1.027356,-1.019305 1.659972,-2.325671 1.817138,-3.752428 0.04697,-0.426394 0.03977,-1.286703 -0.01421,-1.69849 -0.1808,-1.379246 -0.662011,-2.397744 -1.563371,-3.3089327 -1.026958,-1.0381564 -2.181668,-1.5199066 -3.64078,-1.5189488 -0.723925,4.751e-4 -1.297459,0.114736 -1.934845,0.3854644 -0.13742,0.058369 -0.254473,0.1012131 -0.260119,0.095208 -0.0056,-0.006 0.09917,-0.6303135 0.232928,-1.3873533 l 0.243192,-1.3764363 3.101059,-0.00766 3.101059,-0.00766 V 3.7009584 2.121281 l -4.361312,-0.00762 c -2.439689,-0.00426 -4.3728286,0.00389 -4.3874501,0.018514 -0.022484,0.022484 -1.7057254,8.861369 -1.7068029,8.962609 -5.151e-4,0.04841 -0.060777,0.03777 1.4214849,0.25089 l 1.2864778,0.18497 0.2704377,-0.257357 c 0.7352276,-0.699665 1.4030726,-0.985343 2.3018416,-0.984638 0.746351,5.85e-4 1.370775,0.280553 1.811279,0.812111 0.296823,0.358179 0.461278,0.724215 0.58585,1.303964 0.09027,0.420099 0.09758,1.527821 0.01315,1.992911 -0.146981,0.809698 -0.457164,1.404956 -0.939374,1.802705 -0.426349,0.351673 -0.867815,0.510237 -1.410731,0.506704 -0.634232,-0.0041 -1.106232,-0.199281 -1.574836,-0.651127 -0.399712,-0.385417 -0.63392,-0.836682 -0.7564407,-1.457485 -0.030461,-0.154345 -0.059989,-0.28445 -0.065618,-0.289123 -0.00563,-0.0047 -0.1794845,0.0093 -0.386347,0.03099 -0.2068625,0.02172 -0.9109473,0.09431 -1.5646328,0.161325 -0.6536855,0.06701 -1.2325244,0.129186 -1.2863087,0.138166 -0.1222499,0.02041 -0.1236932,0.05231 -0.024041,0.531231 0.3970184,1.908058 1.6435252,3.336575 3.4316306,3.932705 0.4074736,0.135846 0.9746066,0.257755 1.3991426,0.300754 0.463553,0.04695 1.489462,0.01783 1.910657,-0.05424 z"
     id="path3"
     transform="matrix(20,0,0,20,0,-960)" />
</svg>
